<svg width="500" height="382" viewBox="0 0 500 382" fill="none" xmlns="http://www.w3.org/2000/svg">
<path d="M246.297 244.831L291.088 248.361C291.088 274.017 285.697 297.059 273.602 317.217C261.629 337.253 244.709 353.074 222.84 364.68C200.971 376.165 175.315 381.907 145.872 381.907C116.429 381.907 90.7731 376.165 68.9044 364.68C47.0358 353.074 30.0541 337.253 17.9591 317.217C5.98638 297.059 0 274.152 0 248.496V0H45.4476V244.831C45.4476 263.156 49.4793 279.466 57.5425 293.76C65.6058 307.932 77.0899 319.111 91.9948 327.296C107.022 335.359 124.981 339.391 145.872 339.391C166.763 339.391 184.723 335.359 199.75 327.296C214.777 319.111 226.261 307.932 234.202 293.76C242.265 279.466 246.297 263.156 246.297 244.831Z" fill="#C9D1FE"/>
<path d="M245.64 261.778V0H372.453C401.897 0 425.964 5.31444 444.657 15.9433C463.471 26.45 477.398 40.683 486.439 58.6421C495.48 76.6012 500 96.6373 500 118.75C500 140.863 495.48 160.96 486.439 179.042C477.521 197.123 463.715 211.539 445.023 222.29C426.331 232.919 402.385 238.233 373.186 238.233H282.291V197.917H371.72C391.879 197.917 408.066 194.435 420.283 187.471C432.501 180.508 441.358 171.1 446.856 159.25C452.475 147.277 455.285 133.777 455.285 118.75C455.285 103.723 452.475 90.2844 446.856 78.4338C441.358 66.5832 432.439 57.2982 420.1 50.5788C407.761 43.7372 391.39 40.3164 370.987 40.3164H291.088L291.085 249.393L245.64 261.778Z" fill="#C9D1FE"/>
</svg>
